# xmcd
#
# Track frame offsets: 
#        150
#        21310
#        46755
#        63119
#        83182
#        104976
#        127851
#        145805
#        165049
#
# Disc length: 2307 seconds
#
# Revision: 0
# Processed by: cddbd v1.5.2PL0 Copyright (c) Steve Scherf et al.
# Submitted via: ExactAudioCopy v1.0b3
#
DISCID=6b090109
DTITLE=うさころにー - うさころ べすと
DYEAR=2014
DGENRE=A-POP
TTITLE0=VACATION
TTITLE1=Sanctus
TTITLE2=雨音、既視感
TTITLE3=cidre
TTITLE4=five minutes
TTITLE5=君のとなり!
TTITLE6=Cyclone
TTITLE7=ストレートサマーストリート
TTITLE8=HAPPY TIME -orgel-
EXTD=
EXTT0=
EXTT1=
EXTT2=
EXTT3=
EXTT4=
EXTT5=
EXTT6=
EXTT7=
EXTT8=
PLAYORDER=
